<svg width="47" height="47" viewBox="0 0 47 47" fill="none" xmlns="http://www.w3.org/2000/svg">
<path fill-rule="evenodd" clip-rule="evenodd" d="M45 23.5C45 35.3741 35.3741 45 23.5 45C11.6259 45 2 35.3741 2 23.5C2 11.6259 11.6259 2 23.5 2C35.3741 2 45 11.6259 45 23.5ZM47 23.5C47 36.4787 36.4787 47 23.5 47C10.5213 47 0 36.4787 0 23.5C0 10.5213 10.5213 0 23.5 0C36.4787 0 47 10.5213 47 23.5ZM24.151 29.5055L27.333 26.3235C27.5283 26.1282 27.5283 25.8116 27.333 25.6164C27.1377 25.4211 26.8212 25.4211 26.6259 25.6164L24.2975 27.9448V17.2532H23.2975V27.9448L20.969 25.6164C20.7738 25.4211 20.4572 25.4211 20.2619 25.6164C20.0667 25.8116 20.0667 26.1282 20.2619 26.3235L23.4439 29.5055C23.6392 29.7007 23.9558 29.7007 24.151 29.5055Z" fill="white" fill-opacity="0.2"/>
</svg>
