<svg width="120" height="120" viewBox="0 0 120 120" fill="none" xmlns="http://www.w3.org/2000/svg">
<circle cx="60" cy="60" r="60" fill="#060606"/>
<g filter="url(#filter0_d_104_2)">
<circle cx="59.9827" cy="60.0172" r="44.2916" stroke="white" stroke-linecap="round" stroke-dasharray="1 5" shape-rendering="crispEdges"/>
</g>
<path d="M60 107C50.7043 107 41.6173 104.243 33.8882 99.0791C26.1591 93.9146 20.135 86.5742 16.5777 77.9861C13.0203 69.398 12.0896 59.9479 13.9031 50.8307C15.7166 41.7136 20.1929 33.339 26.766 26.766C33.339 20.1929 41.7136 15.7166 50.8308 13.9031C59.9479 12.0896 69.398 13.0203 77.9861 16.5777C86.5742 20.135 93.9146 26.1591 99.0791 33.8882C104.243 41.6173 107 50.7043 107 60L102.292 60C102.292 51.6354 99.8119 43.4586 95.1647 36.5037C90.5176 29.5487 83.9125 24.128 76.1846 20.927C68.4567 17.726 59.9531 16.8885 51.7492 18.5203C43.5453 20.1522 36.0095 24.1802 30.0948 30.0948C24.1802 36.0095 20.1522 43.5453 18.5204 51.7492C16.8885 59.9531 17.726 68.4566 20.927 76.1846C24.128 83.9125 29.5487 90.5176 36.5037 95.1647C43.4586 99.8119 51.6354 102.292 60 102.292L60 107Z" fill="#E2B228"/>
<circle cx="93.4062" cy="87.9552" r="4.08845" fill="white"/>
<path d="M55.2075 87H42.0675V35.9H82.5825V46.12H55.2075V58.165H76.7425V68.385H55.2075V87Z" fill="#E2B228"/>
<mask id="mask0_104_2" style="mask-type:alpha" maskUnits="userSpaceOnUse" x="12" y="12" width="96" height="96">
<circle cx="59.9827" cy="60.0172" r="44.2916" stroke="white" stroke-linecap="round" stroke-dasharray="1 5"/>
<mask id="path-7-outside-1_104_2" maskUnits="userSpaceOnUse" x="12" y="12" width="96" height="96" fill="black">
<rect fill="white" x="12" y="12" width="96" height="96"/>
<path d="M60 107C50.7043 107 41.6173 104.243 33.8882 99.0791C26.1591 93.9146 20.135 86.5742 16.5777 77.9861C13.0203 69.398 12.0896 59.9479 13.9031 50.8307C15.7166 41.7136 20.1929 33.339 26.766 26.766C33.339 20.1929 41.7136 15.7166 50.8308 13.9031C59.9479 12.0896 69.398 13.0203 77.9861 16.5777C86.5742 20.135 93.9146 26.1591 99.0791 33.8882C104.243 41.6173 107 50.7043 107 60L102.292 60C102.292 51.6354 99.8119 43.4586 95.1647 36.5037C90.5176 29.5487 83.9125 24.128 76.1846 20.927C68.4567 17.726 59.9531 16.8885 51.7492 18.5203C43.5453 20.1522 36.0095 24.1802 30.0948 30.0948C24.1802 36.0095 20.1522 43.5453 18.5204 51.7492C16.8885 59.9531 17.726 68.4566 20.927 76.1846C24.128 83.9125 29.5487 90.5176 36.5037 95.1647C43.4586 99.8119 51.6354 102.292 60 102.292L60 107Z"/>
</mask>
<path d="M60 107C50.7043 107 41.6173 104.243 33.8882 99.0791C26.1591 93.9146 20.135 86.5742 16.5777 77.9861C13.0203 69.398 12.0896 59.9479 13.9031 50.8307C15.7166 41.7136 20.1929 33.339 26.766 26.766C33.339 20.1929 41.7136 15.7166 50.8308 13.9031C59.9479 12.0896 69.398 13.0203 77.9861 16.5777C86.5742 20.135 93.9146 26.1591 99.0791 33.8882C104.243 41.6173 107 50.7043 107 60L102.292 60C102.292 51.6354 99.8119 43.4586 95.1647 36.5037C90.5176 29.5487 83.9125 24.128 76.1846 20.927C68.4567 17.726 59.9531 16.8885 51.7492 18.5203C43.5453 20.1522 36.0095 24.1802 30.0948 30.0948C24.1802 36.0095 20.1522 43.5453 18.5204 51.7492C16.8885 59.9531 17.726 68.4566 20.927 76.1846C24.128 83.9125 29.5487 90.5176 36.5037 95.1647C43.4586 99.8119 51.6354 102.292 60 102.292L60 107Z" fill="#E2B228"/>
<path d="M60 107C50.7043 107 41.6173 104.243 33.8882 99.0791C26.1591 93.9146 20.135 86.5742 16.5777 77.9861C13.0203 69.398 12.0896 59.9479 13.9031 50.8307C15.7166 41.7136 20.1929 33.339 26.766 26.766C33.339 20.1929 41.7136 15.7166 50.8308 13.9031C59.9479 12.0896 69.398 13.0203 77.9861 16.5777C86.5742 20.135 93.9146 26.1591 99.0791 33.8882C104.243 41.6173 107 50.7043 107 60L102.292 60C102.292 51.6354 99.8119 43.4586 95.1647 36.5037C90.5176 29.5487 83.9125 24.128 76.1846 20.927C68.4567 17.726 59.9531 16.8885 51.7492 18.5203C43.5453 20.1522 36.0095 24.1802 30.0948 30.0948C24.1802 36.0095 20.1522 43.5453 18.5204 51.7492C16.8885 59.9531 17.726 68.4566 20.927 76.1846C24.128 83.9125 29.5487 90.5176 36.5037 95.1647C43.4586 99.8119 51.6354 102.292 60 102.292L60 107Z" stroke="black" stroke-width="2" stroke-linejoin="round" mask="url(#path-7-outside-1_104_2)"/>
<circle cx="93.4062" cy="87.9552" r="4.08845" fill="white"/>
</mask>
<g mask="url(#mask0_104_2)">
</g>
<defs>
<filter id="filter0_d_104_2" x="11.1912" y="15.2256" width="97.5831" height="97.583" filterUnits="userSpaceOnUse" color-interpolation-filters="sRGB">
<feFlood flood-opacity="0" result="BackgroundImageFix"/>
<feColorMatrix in="SourceAlpha" type="matrix" values="0 0 0 0 0 0 0 0 0 0 0 0 0 0 0 0 0 0 127 0" result="hardAlpha"/>
<feOffset dy="4"/>
<feGaussianBlur stdDeviation="2"/>
<feComposite in2="hardAlpha" operator="out"/>
<feColorMatrix type="matrix" values="0 0 0 0 0 0 0 0 0 0 0 0 0 0 0 0 0 0 0.25 0"/>
<feBlend mode="normal" in2="BackgroundImageFix" result="effect1_dropShadow_104_2"/>
<feBlend mode="normal" in="SourceGraphic" in2="effect1_dropShadow_104_2" result="shape"/>
</filter>
</defs>
</svg>
